<svg xmlns="http://www.w3.org/2000/svg" xmlns:xlink="http://www.w3.org/1999/xlink" contentStyleType="text/css" height="1087px" preserveAspectRatio="none" style="width:818px;height:1087px;background:#FFFFFF;" version="1.1" viewBox="0 0 818 1087" width="818px" zoomAndPan="magnify"><defs/><g><ellipse cx="345.6123" cy="20" fill="#222222" rx="10" ry="10" style="stroke:#222222;stroke-width:1.0;"/><path d="M464.4668,40 L464.4668,71.2656 L444.4668,75.2656 L464.4668,79.2656 L464.4668,110.5313 A0,0 0 0 0 464.4668,110.5313 L655.1841,110.5313 A0,0 0 0 0 655.1841,110.5313 L655.1841,50 L645.1841,40 L464.4668,40 A0,0 0 0 0 464.4668,40 " fill="#FEFFDD" style="stroke:#181818;stroke-width:0.5;"/><path d="M645.1841,40 L645.1841,50 L655.1841,50 L645.1841,40 " fill="#FEFFDD" style="stroke:#181818;stroke-width:0.5;"/><text fill="#000000" font-family="sans-serif" font-size="13" lengthAdjust="spacing" textLength="142.5874" x="470.4668" y="57.0669">- Endere&#231;o de Origem</text><text fill="#000000" font-family="sans-serif" font-size="13" lengthAdjust="spacing" textLength="100.9468" x="470.4668" y="72.1997">- Raio de Busca</text><text fill="#000000" font-family="sans-serif" font-size="13" lengthAdjust="spacing" textLength="169.7173" x="470.4668" y="87.3325">- Tipo de Estabelecimento</text><text fill="#000000" font-family="sans-serif" font-size="13" lengthAdjust="spacing" textLength="141.7178" x="470.4668" y="102.4653">- N&#250;mero de Destinos</text><rect fill="#F1F1F1" height="33.9688" rx="12.5" ry="12.5" style="stroke:#181818;stroke-width:0.5;" width="197.709" x="246.7578" y="58.2813"/><text fill="#000000" font-family="sans-serif" font-size="12" lengthAdjust="spacing" textLength="177.709" x="256.7578" y="79.4199">Configura&#231;&#227;o dos Par&#226;metros</text><rect fill="#F1F1F1" height="33.9688" rx="12.5" ry="12.5" style="stroke:#181818;stroke-width:0.5;" width="238.3086" x="226.458" y="130.5313"/><text fill="#000000" font-family="sans-serif" font-size="12" lengthAdjust="spacing" textLength="218.3086" x="236.458" y="151.6699">Executar Algoritmos de Roteamento</text><rect fill="#555555" height="6" rx="2.5" ry="2.5" style="stroke:#555555;stroke-width:1.0;" width="589.1074" x="51.0586" y="184.5"/><rect fill="#F1F1F1" height="33.9688" rx="12.5" ry="12.5" style="stroke:#181818;stroke-width:0.5;" width="66.1016" x="65.0586" y="210.5"/><text fill="#000000" font-family="sans-serif" font-size="12" lengthAdjust="spacing" textLength="46.1016" x="75.0586" y="231.6387">Dijkstra</text><rect fill="#F1F1F1" height="33.9688" rx="12.5" ry="12.5" style="stroke:#181818;stroke-width:0.5;" width="34.209" x="159.1602" y="210.5"/><text fill="#000000" font-family="sans-serif" font-size="12" lengthAdjust="spacing" textLength="14.209" x="169.1602" y="231.6387">A*</text><rect fill="#F1F1F1" height="33.9688" rx="12.5" ry="12.5" style="stroke:#181818;stroke-width:0.5;" width="100.0566" x="221.3691" y="210.5"/><text fill="#000000" font-family="sans-serif" font-size="12" lengthAdjust="spacing" textLength="80.0566" x="231.3691" y="231.6387">Bellman-Ford</text><rect fill="#F1F1F1" height="33.9688" rx="12.5" ry="12.5" style="stroke:#181818;stroke-width:0.5;" width="140.3164" x="349.4258" y="210.5"/><text fill="#000000" font-family="sans-serif" font-size="12" lengthAdjust="spacing" textLength="120.3164" x="359.4258" y="231.6387">Dijkstra Bidirecional</text><rect fill="#F1F1F1" height="33.9688" rx="12.5" ry="12.5" style="stroke:#181818;stroke-width:0.5;" width="108.4238" x="517.7422" y="210.5"/><text fill="#000000" font-family="sans-serif" font-size="12" lengthAdjust="spacing" textLength="88.4238" x="527.7422" y="231.6387">A* Bidirecional</text><rect fill="#555555" height="6" rx="2.5" ry="2.5" style="stroke:#555555;stroke-width:1.0;" width="589.1074" x="51.0586" y="264.4688"/><path d="M423.8467,280.4688 L423.8467,326.8672 L403.8467,330.8672 L423.8467,334.8672 L423.8467,381.2656 A0,0 0 0 0 423.8467,381.2656 L711.5054,381.2656 A0,0 0 0 0 711.5054,381.2656 L711.5054,290.4688 L701.5054,280.4688 L423.8467,280.4688 A0,0 0 0 0 423.8467,280.4688 " fill="#FEFFDD" style="stroke:#181818;stroke-width:0.5;"/><path d="M701.5054,280.4688 L701.5054,290.4688 L711.5054,290.4688 L701.5054,280.4688 " fill="#FEFFDD" style="stroke:#181818;stroke-width:0.5;"/><text fill="#000000" font-family="sans-serif" font-size="13" lengthAdjust="spacing" textLength="253.8047" x="429.8467" y="297.5356">- Endere&#231;o e Coordenadas Geogr&#225;ficas</text><text fill="#000000" font-family="sans-serif" font-size="13" lengthAdjust="spacing" textLength="100.9468" x="429.8467" y="312.6685">- Raio de Busca</text><text fill="#000000" font-family="sans-serif" font-size="13" lengthAdjust="spacing" textLength="169.7173" x="429.8467" y="327.8013">- Tipo de Estabelecimento</text><text fill="#000000" font-family="sans-serif" font-size="13" lengthAdjust="spacing" textLength="203.2329" x="429.8467" y="342.9341">- N&#250;mero de V&#233;rtices e Arestas</text><text fill="#000000" font-family="sans-serif" font-size="13" lengthAdjust="spacing" textLength="266.6587" x="429.8467" y="358.0669">- Densidade do Grafo (d = 2E / (V*(V-1)))</text><text fill="#000000" font-family="sans-serif" font-size="13" lengthAdjust="spacing" textLength="248.6758" x="429.8467" y="373.1997">- Tempos de Execu&#231;&#227;o dos Algoritmos</text><rect fill="#F1F1F1" height="33.9688" rx="12.5" ry="12.5" style="stroke:#181818;stroke-width:0.5;" width="116.4688" x="287.3779" y="313.8828"/><text fill="#000000" font-family="sans-serif" font-size="12" lengthAdjust="spacing" textLength="96.4688" x="297.3779" y="335.0215">Registrar Dados</text><rect fill="#F1F1F1" height="33.9688" rx="12.5" ry="12.5" style="stroke:#181818;stroke-width:0.5;" width="130.1152" x="280.5547" y="401.2656"/><text fill="#000000" font-family="sans-serif" font-size="12" lengthAdjust="spacing" textLength="110.1152" x="290.5547" y="422.4043">An&#225;lise dos Dados</text><rect fill="#555555" height="6" rx="2.5" ry="2.5" style="stroke:#555555;stroke-width:1.0;" width="671.2246" x="11" y="455.2344"/><rect fill="#F1F1F1" height="33.9688" rx="12.5" ry="12.5" style="stroke:#181818;stroke-width:0.5;" width="189.3887" x="23" y="481.2344"/><text fill="#000000" font-family="sans-serif" font-size="12" lengthAdjust="spacing" textLength="169.3887" x="33" y="502.373">Gerar Gr&#225;ficos de Dispers&#227;o</text><rect fill="#F1F1F1" height="33.9688" rx="12.5" ry="12.5" style="stroke:#181818;stroke-width:0.5;" width="194.2695" x="240.3887" y="481.2344"/><text fill="#000000" font-family="sans-serif" font-size="12" lengthAdjust="spacing" textLength="174.2695" x="250.3887" y="502.373">Gerar Gr&#225;ficos Comparativos</text><rect fill="#F1F1F1" height="33.9688" rx="12.5" ry="12.5" style="stroke:#181818;stroke-width:0.5;" width="205.5664" x="462.6582" y="481.2344"/><text fill="#000000" font-family="sans-serif" font-size="12" lengthAdjust="spacing" textLength="185.5664" x="472.6582" y="502.373">Gerar Gr&#225;ficos Tridimensionais</text><rect fill="#555555" height="6" rx="2.5" ry="2.5" style="stroke:#555555;stroke-width:1.0;" width="671.2246" x="11" y="535.2031"/><path d="M459.5596,551.2031 L459.5596,582.4688 L439.5596,586.4688 L459.5596,590.4688 L459.5596,621.7344 A0,0 0 0 0 459.5596,621.7344 L712.3696,621.7344 A0,0 0 0 0 712.3696,621.7344 L712.3696,561.2031 L702.3696,551.2031 L459.5596,551.2031 A0,0 0 0 0 459.5596,551.2031 " fill="#FEFFDD" style="stroke:#181818;stroke-width:0.5;"/><path d="M702.3696,551.2031 L702.3696,561.2031 L712.3696,561.2031 L702.3696,551.2031 " fill="#FEFFDD" style="stroke:#181818;stroke-width:0.5;"/><text fill="#000000" font-family="sans-serif" font-size="13" lengthAdjust="spacing" textLength="142.8032" x="465.5596" y="568.27">- Linhas de Tend&#234;ncia</text><text fill="#000000" font-family="sans-serif" font-size="13" lengthAdjust="spacing" textLength="136.4683" x="465.5596" y="583.4028">- Legendas e R&#243;tulos</text><text fill="#000000" font-family="sans-serif" font-size="13" lengthAdjust="spacing" textLength="108.1958" x="465.5596" y="598.5356">- Ajuste de Eixos</text><text fill="#000000" font-family="sans-serif" font-size="13" lengthAdjust="spacing" textLength="231.8101" x="465.5596" y="613.6685">- Cores e Marcadores Diferenciados</text><rect fill="#F1F1F1" height="33.9688" rx="12.5" ry="12.5" style="stroke:#181818;stroke-width:0.5;" width="187.8945" x="251.665" y="569.4844"/><text fill="#000000" font-family="sans-serif" font-size="12" lengthAdjust="spacing" textLength="167.8945" x="261.665" y="590.623">Personaliza&#231;&#227;o dos Gr&#225;ficos</text><path d="M489.0264,638.5859 L489.0264,654.7188 L469.0264,658.7188 L489.0264,662.7188 L489.0264,678.8516 A0,0 0 0 0 489.0264,678.8516 L773.3271,678.8516 A0,0 0 0 0 773.3271,678.8516 L773.3271,648.5859 L763.3271,638.5859 L489.0264,638.5859 A0,0 0 0 0 489.0264,638.5859 " fill="#FEFFDD" style="stroke:#181818;stroke-width:0.5;"/><path d="M763.3271,638.5859 L763.3271,648.5859 L773.3271,648.5859 L763.3271,638.5859 " fill="#FEFFDD" style="stroke:#181818;stroke-width:0.5;"/><text fill="#000000" font-family="sans-serif" font-size="13" lengthAdjust="spacing" textLength="207.3208" x="495.0264" y="655.6528">- Inclus&#227;o de Gr&#225;ficos e Tabelas</text><text fill="#000000" font-family="sans-serif" font-size="13" lengthAdjust="spacing" textLength="263.3008" x="495.0264" y="670.7856">- Facilita&#231;&#227;o da Interpreta&#231;&#227;o dos Dados</text><rect fill="#F1F1F1" height="33.9688" rx="12.5" ry="12.5" style="stroke:#181818;stroke-width:0.5;" width="246.8281" x="222.1982" y="641.7344"/><text fill="#000000" font-family="sans-serif" font-size="12" lengthAdjust="spacing" textLength="226.8281" x="232.1982" y="662.873">Gera&#231;&#227;o de Relat&#243;rios Automatizados</text><rect fill="#F1F1F1" height="33.9688" rx="12.5" ry="12.5" style="stroke:#181818;stroke-width:0.5;" width="173.5156" x="258.8545" y="698.8516"/><text fill="#000000" font-family="sans-serif" font-size="12" lengthAdjust="spacing" textLength="153.5156" x="268.8545" y="719.9902">Valida&#231;&#227;o dos Resultados</text><rect fill="#555555" height="6" rx="2.5" ry="2.5" style="stroke:#555555;stroke-width:1.0;" width="570.3691" x="60.4277" y="752.8203"/><rect fill="#F1F1F1" height="33.9688" rx="12.5" ry="12.5" style="stroke:#181818;stroke-width:0.5;" width="147.6406" x="74.4277" y="778.8203"/><text fill="#000000" font-family="sans-serif" font-size="12" lengthAdjust="spacing" textLength="127.6406" x="84.4277" y="799.959">Execu&#231;&#245;es Repetidas</text><rect fill="#F1F1F1" height="33.9688" rx="12.5" ry="12.5" style="stroke:#181818;stroke-width:0.5;" width="205.6367" x="250.0684" y="778.8203"/><text fill="#000000" font-family="sans-serif" font-size="12" lengthAdjust="spacing" textLength="185.6367" x="260.0684" y="799.959">Controle de Vari&#225;veis Externas</text><rect fill="#F1F1F1" height="33.9688" rx="12.5" ry="12.5" style="stroke:#181818;stroke-width:0.5;" width="133.0918" x="483.7051" y="778.8203"/><text fill="#000000" font-family="sans-serif" font-size="12" lengthAdjust="spacing" textLength="113.0918" x="493.7051" y="799.959">An&#225;lise de Outliers</text><rect fill="#555555" height="6" rx="2.5" ry="2.5" style="stroke:#555555;stroke-width:1.0;" width="570.3691" x="60.4277" y="832.7891"/><path d="M499.1455,848.7891 L499.1455,872.4883 L479.1455,876.4883 L499.1455,880.4883 L499.1455,904.1875 A0,0 0 0 0 499.1455,904.1875 L775.8862,904.1875 A0,0 0 0 0 775.8862,904.1875 L775.8862,858.7891 L765.8862,848.7891 L499.1455,848.7891 A0,0 0 0 0 499.1455,848.7891 " fill="#FEFFDD" style="stroke:#181818;stroke-width:0.5;"/><path d="M765.8862,848.7891 L765.8862,858.7891 L775.8862,858.7891 L765.8862,848.7891 " fill="#FEFFDD" style="stroke:#181818;stroke-width:0.5;"/><text fill="#000000" font-family="sans-serif" font-size="13" lengthAdjust="spacing" textLength="227.8809" x="505.1455" y="865.856">- Uso de Dados de Dom&#237;nio P&#250;blico</text><text fill="#000000" font-family="sans-serif" font-size="13" lengthAdjust="spacing" textLength="192.7593" x="505.1455" y="880.9888">- Transpar&#234;ncia Metodol&#243;gica</text><text fill="#000000" font-family="sans-serif" font-size="13" lengthAdjust="spacing" textLength="255.7407" x="505.1455" y="896.1216">- Confidencialidade de Dados Sens&#237;veis</text><rect fill="#F1F1F1" height="33.9688" rx="12.5" ry="12.5" style="stroke:#181818;stroke-width:0.5;" width="267.0664" x="212.0791" y="859.5039"/><text fill="#000000" font-family="sans-serif" font-size="12" lengthAdjust="spacing" textLength="247.0664" x="222.0791" y="880.6426">Considera&#231;&#245;es &#201;ticas e de Confiabilidade</text><path d="M520.9922,914.1875 L520.9922,937.8867 L500.9922,941.8867 L520.9922,945.8867 L520.9922,969.5859 A0,0 0 0 0 520.9922,969.5859 L775.8652,969.5859 A0,0 0 0 0 775.8652,969.5859 L775.8652,924.1875 L765.8652,914.1875 L520.9922,914.1875 A0,0 0 0 0 520.9922,914.1875 " fill="#FEFFDD" style="stroke:#181818;stroke-width:0.5;"/><path d="M765.8652,914.1875 L765.8652,924.1875 L775.8652,924.1875 L765.8652,914.1875 " fill="#FEFFDD" style="stroke:#181818;stroke-width:0.5;"/><text fill="#000000" font-family="sans-serif" font-size="13" lengthAdjust="spacing" textLength="227.8682" x="526.9922" y="931.2544">- Ambiente de Execu&#231;&#227;o Espec&#237;fico</text><text fill="#000000" font-family="sans-serif" font-size="13" lengthAdjust="spacing" textLength="213.77" x="526.9922" y="946.3872">- Variabilidade das Redes Vi&#225;rias</text><text fill="#000000" font-family="sans-serif" font-size="13" lengthAdjust="spacing" textLength="233.873" x="526.9922" y="961.52">- Simplifica&#231;&#245;es no Modelo de Grafo</text><rect fill="#F1F1F1" height="33.9688" rx="12.5" ry="12.5" style="stroke:#181818;stroke-width:0.5;" width="310.7598" x="190.2324" y="924.9023"/><text fill="#000000" font-family="sans-serif" font-size="12" lengthAdjust="spacing" textLength="290.7598" x="200.2324" y="946.041">Reconhecimento das Limita&#231;&#245;es da Metodologia</text><path d="M491.5781,979.5859 L491.5781,1003.2852 L471.5781,1007.2852 L491.5781,1011.2852 L491.5781,1034.9844 A0,0 0 0 0 491.5781,1034.9844 L806.7729,1034.9844 A0,0 0 0 0 806.7729,1034.9844 L806.7729,989.5859 L796.7729,979.5859 L491.5781,979.5859 A0,0 0 0 0 491.5781,979.5859 " fill="#FEFFDD" style="stroke:#181818;stroke-width:0.5;"/><path d="M796.7729,979.5859 L796.7729,989.5859 L806.7729,989.5859 L796.7729,979.5859 " fill="#FEFFDD" style="stroke:#181818;stroke-width:0.5;"/><text fill="#000000" font-family="sans-serif" font-size="13" lengthAdjust="spacing" textLength="294.1948" x="497.5781" y="996.6528">- Disponibiliza&#231;&#227;o do C&#243;digo Fonte no GitHub</text><text fill="#000000" font-family="sans-serif" font-size="13" lengthAdjust="spacing" textLength="238.7798" x="497.5781" y="1011.7856">- Documenta&#231;&#227;o de Instala&#231;&#227;o e Uso</text><text fill="#000000" font-family="sans-serif" font-size="13" lengthAdjust="spacing" textLength="271.5718" x="497.5781" y="1026.9185">- Compartilhamento dos Dados Coletados</text><rect fill="#F1F1F1" height="33.9688" rx="12.5" ry="12.5" style="stroke:#181818;stroke-width:0.5;" width="251.9316" x="219.6465" y="990.3008"/><text fill="#000000" font-family="sans-serif" font-size="12" lengthAdjust="spacing" textLength="231.9316" x="229.6465" y="1011.4395">Prepara&#231;&#227;o para Replica&#231;&#227;o do Estudo</text><ellipse cx="345.6123" cy="1065.9844" fill="none" rx="11" ry="11" style="stroke:#222222;stroke-width:1.0;"/><ellipse cx="345.6123" cy="1065.9844" fill="#222222" rx="6" ry="6" style="stroke:#222222;stroke-width:1.0;"/><line style="stroke:#181818;stroke-width:1.0;" x1="345.6123" x2="345.6123" y1="30" y2="58.2813"/><polygon fill="#181818" points="341.6123,48.2813,345.6123,58.2813,349.6123,48.2813,345.6123,52.2813" style="stroke:#181818;stroke-width:1.0;"/><line style="stroke:#181818;stroke-width:1.0;" x1="345.6123" x2="345.6123" y1="92.25" y2="130.5313"/><polygon fill="#181818" points="341.6123,120.5313,345.6123,130.5313,349.6123,120.5313,345.6123,124.5313" style="stroke:#181818;stroke-width:1.0;"/><line style="stroke:#181818;stroke-width:1.0;" x1="98.1094" x2="98.1094" y1="190.5" y2="210.5"/><polygon fill="#181818" points="94.1094,200.5,98.1094,210.5,102.1094,200.5,98.1094,204.5" style="stroke:#181818;stroke-width:1.0;"/><line style="stroke:#181818;stroke-width:1.0;" x1="176.2646" x2="176.2646" y1="190.5" y2="210.5"/><polygon fill="#181818" points="172.2646,200.5,176.2646,210.5,180.2646,200.5,176.2646,204.5" style="stroke:#181818;stroke-width:1.0;"/><line style="stroke:#181818;stroke-width:1.0;" x1="271.3975" x2="271.3975" y1="190.5" y2="210.5"/><polygon fill="#181818" points="267.3975,200.5,271.3975,210.5,275.3975,200.5,271.3975,204.5" style="stroke:#181818;stroke-width:1.0;"/><line style="stroke:#181818;stroke-width:1.0;" x1="419.584" x2="419.584" y1="190.5" y2="210.5"/><polygon fill="#181818" points="415.584,200.5,419.584,210.5,423.584,200.5,419.584,204.5" style="stroke:#181818;stroke-width:1.0;"/><line style="stroke:#181818;stroke-width:1.0;" x1="571.9541" x2="571.9541" y1="190.5" y2="210.5"/><polygon fill="#181818" points="567.9541,200.5,571.9541,210.5,575.9541,200.5,571.9541,204.5" style="stroke:#181818;stroke-width:1.0;"/><line style="stroke:#181818;stroke-width:1.0;" x1="98.1094" x2="98.1094" y1="244.4688" y2="264.4688"/><polygon fill="#181818" points="94.1094,254.4688,98.1094,264.4688,102.1094,254.4688,98.1094,258.4688" style="stroke:#181818;stroke-width:1.0;"/><line style="stroke:#181818;stroke-width:1.0;" x1="176.2646" x2="176.2646" y1="244.4688" y2="264.4688"/><polygon fill="#181818" points="172.2646,254.4688,176.2646,264.4688,180.2646,254.4688,176.2646,258.4688" style="stroke:#181818;stroke-width:1.0;"/><line style="stroke:#181818;stroke-width:1.0;" x1="271.3975" x2="271.3975" y1="244.4688" y2="264.4688"/><polygon fill="#181818" points="267.3975,254.4688,271.3975,264.4688,275.3975,254.4688,271.3975,258.4688" style="stroke:#181818;stroke-width:1.0;"/><line style="stroke:#181818;stroke-width:1.0;" x1="419.584" x2="419.584" y1="244.4688" y2="264.4688"/><polygon fill="#181818" points="415.584,254.4688,419.584,264.4688,423.584,254.4688,419.584,258.4688" style="stroke:#181818;stroke-width:1.0;"/><line style="stroke:#181818;stroke-width:1.0;" x1="571.9541" x2="571.9541" y1="244.4688" y2="264.4688"/><polygon fill="#181818" points="567.9541,254.4688,571.9541,264.4688,575.9541,254.4688,571.9541,258.4688" style="stroke:#181818;stroke-width:1.0;"/><line style="stroke:#181818;stroke-width:1.0;" x1="345.6123" x2="345.6123" y1="164.5" y2="184.5"/><polygon fill="#181818" points="341.6123,174.5,345.6123,184.5,349.6123,174.5,345.6123,178.5" style="stroke:#181818;stroke-width:1.0;"/><line style="stroke:#181818;stroke-width:1.0;" x1="345.6123" x2="345.6123" y1="270.4688" y2="313.8828"/><polygon fill="#181818" points="341.6123,303.8828,345.6123,313.8828,349.6123,303.8828,345.6123,307.8828" style="stroke:#181818;stroke-width:1.0;"/><line style="stroke:#181818;stroke-width:1.0;" x1="345.6123" x2="345.6123" y1="347.8516" y2="401.2656"/><polygon fill="#181818" points="341.6123,391.2656,345.6123,401.2656,349.6123,391.2656,345.6123,395.2656" style="stroke:#181818;stroke-width:1.0;"/><line style="stroke:#181818;stroke-width:1.0;" x1="117.6943" x2="117.6943" y1="461.2344" y2="481.2344"/><polygon fill="#181818" points="113.6943,471.2344,117.6943,481.2344,121.6943,471.2344,117.6943,475.2344" style="stroke:#181818;stroke-width:1.0;"/><line style="stroke:#181818;stroke-width:1.0;" x1="337.5234" x2="337.5234" y1="461.2344" y2="481.2344"/><polygon fill="#181818" points="333.5234,471.2344,337.5234,481.2344,341.5234,471.2344,337.5234,475.2344" style="stroke:#181818;stroke-width:1.0;"/><line style="stroke:#181818;stroke-width:1.0;" x1="565.4414" x2="565.4414" y1="461.2344" y2="481.2344"/><polygon fill="#181818" points="561.4414,471.2344,565.4414,481.2344,569.4414,471.2344,565.4414,475.2344" style="stroke:#181818;stroke-width:1.0;"/><line style="stroke:#181818;stroke-width:1.0;" x1="117.6943" x2="117.6943" y1="515.2031" y2="535.2031"/><polygon fill="#181818" points="113.6943,525.2031,117.6943,535.2031,121.6943,525.2031,117.6943,529.2031" style="stroke:#181818;stroke-width:1.0;"/><line style="stroke:#181818;stroke-width:1.0;" x1="337.5234" x2="337.5234" y1="515.2031" y2="535.2031"/><polygon fill="#181818" points="333.5234,525.2031,337.5234,535.2031,341.5234,525.2031,337.5234,529.2031" style="stroke:#181818;stroke-width:1.0;"/><line style="stroke:#181818;stroke-width:1.0;" x1="565.4414" x2="565.4414" y1="515.2031" y2="535.2031"/><polygon fill="#181818" points="561.4414,525.2031,565.4414,535.2031,569.4414,525.2031,565.4414,529.2031" style="stroke:#181818;stroke-width:1.0;"/><line style="stroke:#181818;stroke-width:1.0;" x1="345.6123" x2="345.6123" y1="435.2344" y2="455.2344"/><polygon fill="#181818" points="341.6123,445.2344,345.6123,455.2344,349.6123,445.2344,345.6123,449.2344" style="stroke:#181818;stroke-width:1.0;"/><line style="stroke:#181818;stroke-width:1.0;" x1="345.6123" x2="345.6123" y1="541.2031" y2="569.4844"/><polygon fill="#181818" points="341.6123,559.4844,345.6123,569.4844,349.6123,559.4844,345.6123,563.4844" style="stroke:#181818;stroke-width:1.0;"/><line style="stroke:#181818;stroke-width:1.0;" x1="345.6123" x2="345.6123" y1="603.4531" y2="641.7344"/><polygon fill="#181818" points="341.6123,631.7344,345.6123,641.7344,349.6123,631.7344,345.6123,635.7344" style="stroke:#181818;stroke-width:1.0;"/><line style="stroke:#181818;stroke-width:1.0;" x1="345.6123" x2="345.6123" y1="675.7031" y2="698.8516"/><polygon fill="#181818" points="341.6123,688.8516,345.6123,698.8516,349.6123,688.8516,345.6123,692.8516" style="stroke:#181818;stroke-width:1.0;"/><line style="stroke:#181818;stroke-width:1.0;" x1="148.248" x2="148.248" y1="758.8203" y2="778.8203"/><polygon fill="#181818" points="144.248,768.8203,148.248,778.8203,152.248,768.8203,148.248,772.8203" style="stroke:#181818;stroke-width:1.0;"/><line style="stroke:#181818;stroke-width:1.0;" x1="352.8867" x2="352.8867" y1="758.8203" y2="778.8203"/><polygon fill="#181818" points="348.8867,768.8203,352.8867,778.8203,356.8867,768.8203,352.8867,772.8203" style="stroke:#181818;stroke-width:1.0;"/><line style="stroke:#181818;stroke-width:1.0;" x1="550.251" x2="550.251" y1="758.8203" y2="778.8203"/><polygon fill="#181818" points="546.251,768.8203,550.251,778.8203,554.251,768.8203,550.251,772.8203" style="stroke:#181818;stroke-width:1.0;"/><line style="stroke:#181818;stroke-width:1.0;" x1="148.248" x2="148.248" y1="812.7891" y2="832.7891"/><polygon fill="#181818" points="144.248,822.7891,148.248,832.7891,152.248,822.7891,148.248,826.7891" style="stroke:#181818;stroke-width:1.0;"/><line style="stroke:#181818;stroke-width:1.0;" x1="352.8867" x2="352.8867" y1="812.7891" y2="832.7891"/><polygon fill="#181818" points="348.8867,822.7891,352.8867,832.7891,356.8867,822.7891,352.8867,826.7891" style="stroke:#181818;stroke-width:1.0;"/><line style="stroke:#181818;stroke-width:1.0;" x1="550.251" x2="550.251" y1="812.7891" y2="832.7891"/><polygon fill="#181818" points="546.251,822.7891,550.251,832.7891,554.251,822.7891,550.251,826.7891" style="stroke:#181818;stroke-width:1.0;"/><line style="stroke:#181818;stroke-width:1.0;" x1="345.6123" x2="345.6123" y1="732.8203" y2="752.8203"/><polygon fill="#181818" points="341.6123,742.8203,345.6123,752.8203,349.6123,742.8203,345.6123,746.8203" style="stroke:#181818;stroke-width:1.0;"/><line style="stroke:#181818;stroke-width:1.0;" x1="345.6123" x2="345.6123" y1="838.7891" y2="859.5039"/><polygon fill="#181818" points="341.6123,849.5039,345.6123,859.5039,349.6123,849.5039,345.6123,853.5039" style="stroke:#181818;stroke-width:1.0;"/><line style="stroke:#181818;stroke-width:1.0;" x1="345.6123" x2="345.6123" y1="893.4727" y2="924.9023"/><polygon fill="#181818" points="341.6123,914.9023,345.6123,924.9023,349.6123,914.9023,345.6123,918.9023" style="stroke:#181818;stroke-width:1.0;"/><line style="stroke:#181818;stroke-width:1.0;" x1="345.6123" x2="345.6123" y1="958.8711" y2="990.3008"/><polygon fill="#181818" points="341.6123,980.3008,345.6123,990.3008,349.6123,980.3008,345.6123,984.3008" style="stroke:#181818;stroke-width:1.0;"/><line style="stroke:#181818;stroke-width:1.0;" x1="345.6123" x2="345.6123" y1="1024.2695" y2="1054.9844"/><polygon fill="#181818" points="341.6123,1044.9844,345.6123,1054.9844,349.6123,1044.9844,345.6123,1048.9844" style="stroke:#181818;stroke-width:1.0;"/><!--SRC=[fLInRjim4Dtr5UoM10YATapGmR4TDu2J6axgdHRFyYKKQP1K4EGF-XbfXw85CXbTilB7UaT9iIstNRf9H_BTtNllxes21HeGqs7_fdSr6W-5Wpn8KsZ8CX-a2rbsqhTcWKNbPFmUlrcXh1SJwUBN4eAp_ZGpDe1mM2n39iIn61e53k9tkWdY4yMXJF6fn1GwgtmkK-G6Loaof4npq91Z2IROT7OLNqfmwNW0Fg2nFWEZ12UZceOFa5TKd-ZfmZeC9HL5LwTqAXF8QRQmxewWJWPuU-U3atL4o4AYuNZlg1iv0wrBQOxFhLFTinP5dA528WcjaNeVidFC5QSwifCf5CW0JWoa-YTj8FgMAW0ZbVHY1BPmyMc1kVJ_n-Ci_d01S_2KeUU8r0Pm0CQZadH3MJ5oSc75WH8VnFkXU2iEPaS7i-DtXuU7TIeeLpNLIO6D8pOwRClKC_59euTqfUcxrMK4JCQexgt67A1VWVE4sMMsUxblovLqCk1z2_dtkpUED2cvIH85_Oug4qh7Kk7ZbhjVd-w9D4QpbAdK6mA9FqsEjGHZA2WWcTffN8TAsvhRtctb2O7vmeScrhSkQN0fNKwKyCy05oG-ewbT0hcNfZ121Yr3N3jalgjWI-h_yOzckZ2vhdppRCC4bSq6QNG_bpbg32s-f5S1tCf1sE9YqAreHcIfhGjJy9KEkzAstlW5VBw2G2_sPAArGlj39t9cqc5ykWVqv2igmknVtrY9jaeLD99oEr8I7jcuveiJno-1PqQa5sc7oJdgPFGzlZxxUjDm6-d3bl7Pq9nDuijS4tUr-PqqdcnNwouk8LXbTLmNs0nYogAIZhgPg1RqclmNdxd3RJAda5kpR0TMi876MDQQS0_gDOijKEwLtIldI0-XCuz3cg8yFY_QkfdTrzvJaYaeGfyHvtHIk-4QovL6NZDDRcF5fLMW6m_HMjYkVEA01x1Eo5yijAvV9sVmDggKtQkPPzmQv78sCoVwSQsmiEBSSZkKUeJXOpMlNzYyOdusWt1XQ7dfvXzOlOP-NWe1zL8sVBO6fYCDeMDb7-pgDm00]--></g></svg>